<svg xmlns="http://www.w3.org/2000/svg" width="52" height="58" viewBox="0 0 52 58"><path d="M26 56C14 50 6 38 6 28c0-8 6-14 20-14s20 6 20 14c0 10-8 22-20 28Z" fill="#E8363C"/><path d="M40 24c3 8 0 17-8 25 4-8 6-17 8-25Z" fill="#C4232A"/><path d="M12 27c1-4 4-7 8-8" fill="none" stroke="#FF9296" stroke-width="3" stroke-linecap="round"/><g fill="#FFD866"><ellipse cx="17" cy="33" rx="1.3" ry="2"/><ellipse cx="26" cy="30" rx="1.3" ry="2"/><ellipse cx="35" cy="33" rx="1.3" ry="2"/><ellipse cx="21" cy="41" rx="1.3" ry="2"/><ellipse cx="31" cy="41" rx="1.3" ry="2"/><ellipse cx="26" cy="48" rx="1.3" ry="2"/></g><path d="M26 56C14 50 6 38 6 28c0-8 6-14 20-14s20 6 20 14c0 10-8 22-20 28Z" fill="none" stroke="#2A1B24" stroke-width="4" stroke-linejoin="round"/><path d="M26 9l5 6 8-2-5 6 7 4-9 1-6 4-6-4-9-1 7-4-5-6 8 2z" fill="#5E9E2E" stroke="#2A1B24" stroke-width="2.6" stroke-linejoin="round"/><path d="M26 11c0-4 1-7 4-9" fill="none" stroke="#2A1B24" stroke-width="6" stroke-linecap="round"/><path d="M26 11c0-4 1-7 4-9" fill="none" stroke="#4E8A24" stroke-width="2.6" stroke-linecap="round"/></svg>
