<svg xmlns="http://www.w3.org/2000/svg" width="50" height="62" viewBox="0 0 50 62"><g stroke="#2A1B24" stroke-width="2.8" stroke-linejoin="round"><path d="M24 25C18 18 12 10 13 3c7 1 12 9 13 20Z" fill="#6BAA35"/><path d="M26 24C29 15 35 8 42 7c1 8-7 14-15 19Z" fill="#5A9A2B"/></g><path d="M25 24C14 24 8 32 8 40c0 8 7 14 17 14s17-6 17-14c0-8-6-16-17-16Z" fill="#E2467C"/><path d="M36 32c3 6 2 13-5 17 3-5 5-11 5-17Z" fill="#C22E62"/><path d="M14 36c1-4 4-6 7-7" fill="none" stroke="#FFA3C4" stroke-width="3" stroke-linecap="round"/><path d="M25 24C14 24 8 32 8 40c0 8 7 14 17 14s17-6 17-14c0-8-6-16-17-16Z" fill="none" stroke="#2A1B24" stroke-width="4" stroke-linejoin="round"/><path d="M21 53c1 3 3 5 4 7 1-2 3-4 4-7" fill="#F7E6EE" stroke="#2A1B24" stroke-width="2.8" stroke-linejoin="round"/></svg>
